<svg xmlns="http://www.w3.org/2000/svg" version="1.1" xmlns:xlink="http://www.w3.org/1999/xlink" xmlns:svgjs="http://svgjs.dev/svgjs" width="1500" height="1500" viewBox="0 0 1500 1500"><rect width="1500" height="1500" fill="#000000"></rect><g transform="matrix(0.6666666666666666,0,0,0.6666666666666666,250,346.4834755526541)"><svg viewBox="0 0 448 361" data-background-color="#776b5d" preserveAspectRatio="xMidYMid meet" height="1208" width="1500" xmlns="http://www.w3.org/2000/svg" xmlns:xlink="http://www.w3.org/1999/xlink"><g id="tight-bounds" transform="matrix(1,0,0,1,0,0.3809585995346083)"><svg viewBox="0 0 448 360" height="360" width="448"><g><svg></svg></g><g><svg viewBox="0 0 448 360" height="360" width="448"><g><path transform="translate(36.9151,-7.08178) scale(0.00624,0.00624)" d="M25167 8301c221 0 400 179 400 400 0 221-179 400-400 400h-3824l-2753 2753c-156 156-409 156-566 0-156-156-156-409 0-566l2188-2188h-6475c-1847 0-3071 431-3819 1301-760 885-1068 2254-1068 4110 0 11 0 22-1 33l34 5884 2356-2356c156-156 409-156 566 0 156 156 156 409 0 566l-2915 2915c33 5746 31 11443-2 17189 4087 4041 8117 8068 12157 12154h4070c221 0 400 179 400 400 0 221-179 400-400 400h-3279l4160 4208 1-1c1313 1313 2498 2062 3660 2151 1146 87 2316-474 3622-1779l4579-4579h-3323c-221 0-400-179-400-400 0-221 179-400 400-400h4123l2666-2666c156-156 409-156 566 0 156 156 156 409 0 566l-2101 2101h6475c1847 0 3071-431 3819-1301 760-885 1068-2254 1068-4110h2l-34-5917-2568 2568c-156 156-409 156-566 0-156-156-156-409 0-566l3127-3127c-33-5746-31-11443 2-17189-4087-4041-8117-8068-12157-12154h-4193c-221 0-400-179-400-400 0-221 179-400 400-400h3402l-4141-4189c-7-6-13-12-20-18-1313-1313-2498-2062-3660-2151-1146-87-2316 474-3622 1779l-4579 4579h3024zM13737 8301h7275l5144-5144c1483-1483 2856-2116 4247-2010 1374 104 2719 934 4167 2382 8 8 15 15 22 23l4695 4749h6977c2096 0 3515 524 4425 1583 898 1045 1261 2582 1261 4629 0 13-1 25-2 37l-36 6373 4559 4508 1-1c1448 1448 2278 2792 2382 4167 106 1391-528 2764-2010 4247l-4934 4934 38 6710h2c0 2047-364 3584-1261 4629-910 1059-2329 1583-4425 1583h-7275l-5144 5144c-1483 1483-2856 2116-4247 2010-1374-104-2719-934-4167-2382l1-1-4718-4772h-6977c-2096 0-3515-524-4425-1583-898-1045-1261-2582-1261-4629h2l37-6410-4537-4485c-8-7-16-14-23-22-1448-1448-2278-2792-2382-4167-106-1391 528-2764 2010-4247l4934-4934-38-6672c-1-12-2-25-2-37 0-2047 364-3584 1261-4629 910-1059 2329-1583 4425-1583zM8141 30000l-44-7653-4374 4374c-1305 1305-1866 2476-1779 3622 88 1162 838 2348 2151 3660 6 6 13 13 18 20l3983 3937 45-7961zM8882 39860l-32 5627h2c0 1857 308 3226 1068 4110 748 871 1972 1301 3819 1301h6186l-5380-5442-5662-5597zM46264 9101h-6186l5380 5442 5662 5597 32-5594c-1-11-1-22-1-33 0-1857-308-3226-1068-4110-748-871-1972-1301-3819-1301zM51906 22039l-45 7961 44 7653 4374-4374c1305-1305 1866-2476 1779-3622-88-1163-838-2348-2151-3660l1-1-4002-3956z" fill="#ffffff" fill-rule="nonzero" stroke="none" stroke-width="1" stroke-linecap="butt" stroke-linejoin="miter" stroke-miterlimit="10" stroke-dasharray="" stroke-dashoffset="0" font-family="none" font-weight="none" font-size="none" text-anchor="none" style="mix-blend-mode: normal" data-fill-palette-color="tertiary"></path></g><g transform="matrix(1,0,0,1,112,137.24106467347931)"><svg viewBox="0 0 224 85.51787065304137" height="85.51787065304137" width="224"><g><svg viewBox="0 0 224 85.51787065304137" height="85.51787065304137" width="224"><g transform="matrix(1,0,0,1,0,52.853474870397406)"><svg viewBox="0 0 224 32.66439578264396" height="32.66439578264396" width="224"><g id="textblocktransform"><svg viewBox="0 0 224 32.66439578264396" height="32.66439578264396" width="224" id="textblock"><g><svg viewBox="0 0 224 32.66439578264396" height="32.66439578264396" width="224"><g transform="matrix(1,0,0,1,0,0)"><svg width="224" viewBox="2.35 -33.9 308.21999999999997 44.949999999999996" height="32.66439578264396" data-palette-color="#ffffff"><path d="M18.85-32.55L18.85-32.55Q21.25-32.55 23.88-32.35 26.5-32.15 29.2-31.55L29.2-31.55Q29.2-31.55 29.38-30.53 29.55-29.5 29.75-28.13 29.95-26.75 30.13-25.63 30.3-24.5 30.3-24.3L30.3-24.3Q30.35-24.1 30-23.9 29.65-23.7 29.25-23.7L29.25-23.7Q28.9-23.7 28.65-23.85L28.65-23.85Q28.55-24.4 28.18-25.55 27.8-26.7 26.83-27.95 25.85-29.2 24-30.08 22.15-30.95 19.1-30.95L19.1-30.95Q16.4-30.95 14.2-29.73 12-28.5 10.43-26.43 8.85-24.35 8.03-21.83 7.2-19.3 7.2-16.75L7.2-16.75Q7.2-13.9 7.98-11.15 8.75-8.4 10.33-6.18 11.9-3.95 14.28-2.63 16.65-1.3 19.85-1.3L19.85-1.3Q22.1-1.3 23.68-2 25.25-2.7 26.3-3.65L26.3-3.65Q27.75-4.95 28.4-6.55 29.05-8.15 29.3-9.35L29.3-9.35Q30.15-9.45 30.85-8.95L30.85-8.95Q30.85-8.6 30.68-7.55 30.5-6.5 30.25-5.28 30-4.05 29.7-3.1 29.4-2.15 29.15-1.9L29.15-1.9Q27.15-0.8 24.6-0.25 22.05 0.3 18.65 0.3L18.65 0.3Q15.05 0.3 12.05-0.98 9.05-2.25 6.88-4.48 4.7-6.7 3.53-9.58 2.35-12.45 2.35-15.7L2.35-15.7Q2.35-19.15 3.58-22.18 4.8-25.2 7-27.55 9.2-29.9 12.23-31.23 15.25-32.55 18.85-32.55ZM36.8-28.95L36.8-28.95Q36.8-29.95 37.52-30.68 38.25-31.4 39.25-31.4L39.25-31.4Q40.25-31.4 40.97-30.68 41.7-29.95 41.7-28.95L41.7-28.95Q41.7-27.95 40.97-27.23 40.25-26.5 39.25-26.5L39.25-26.5Q38.25-26.5 37.52-27.23 36.8-27.95 36.8-28.95ZM41.5-17.5L41.5-5.65Q41.5-4.55 41.52-3.6 41.55-2.65 41.75-2.05L41.75-2.05Q41.85-1.8 42.47-1.6 43.1-1.4 43.8-1.33 44.5-1.25 44.8-1.25L44.8-1.25Q44.95-1.05 44.97-0.55 45-0.05 44.8 0.15L44.8 0.15Q43.3 0.05 42.17-0.03 41.05-0.1 39.6-0.1L39.6-0.1Q38.2-0.1 37.05-0.03 35.9 0.05 34.4 0.15L34.4 0.15Q34.2-0.05 34.22-0.55 34.25-1.05 34.4-1.25L34.4-1.25Q34.7-1.25 35.42-1.33 36.15-1.4 36.8-1.6 37.45-1.8 37.5-2.05L37.5-2.05Q37.7-2.65 37.72-3.6 37.75-4.55 37.75-5.65L37.75-5.65 37.75-14.75Q37.75-15.25 37.72-16.05 37.7-16.85 37.5-17.3L37.5-17.3Q37.35-17.75 36.65-17.93 35.95-18.1 35.25-18.13 34.55-18.15 34.35-18.15L34.35-18.15Q34.3-18.25 34.25-18.75 34.2-19.25 34.35-19.45L34.35-19.45Q36.25-19.7 38.05-20.2 39.85-20.7 41.3-21.5L41.3-21.5Q41.5-21.5 41.67-21.2 41.85-20.9 41.85-20.7L41.85-20.7Q41.85-20.55 41.75-19.85 41.65-19.15 41.57-18.45 41.5-17.75 41.5-17.5L41.5-17.5ZM60-21.4L60-21.4Q62.25-21.4 63.92-20.45 65.59-19.5 66.67-17.95 67.75-16.4 68.27-14.68 68.8-12.95 68.8-11.35L68.8-11.35Q68.8-9 67.8-6.88 66.8-4.75 65.15-3.13 63.5-1.5 61.47-0.55 59.45 0.4 57.4 0.4L57.4 0.4Q56.45 0.4 55.5 0.23 54.55 0.05 53.95-0.15L53.95-0.15Q53.95-0.15 53.84 0.03 53.75 0.2 53.75 0.5L53.75 0.5 53.75 5.2Q53.75 6.3 53.77 7.28 53.8 8.25 54 8.85L54 8.85Q54.09 9.1 54.72 9.28 55.34 9.45 56.07 9.53 56.8 9.6 57.09 9.6L57.09 9.6Q57.25 9.8 57.27 10.33 57.3 10.85 57.09 11.05L57.09 11.05Q55.59 10.95 54.45 10.88 53.3 10.8 51.84 10.8L51.84 10.8Q50.45 10.8 49.32 10.88 48.2 10.95 46.7 11.05L46.7 11.05Q46.5 10.85 46.52 10.33 46.55 9.8 46.7 9.6L46.7 9.6Q47 9.6 47.7 9.53 48.4 9.45 49.05 9.28 49.7 9.1 49.75 8.85L49.75 8.85Q49.95 8.25 49.97 7.28 50 6.3 50 5.2L50 5.2 50-14.75Q50-15.25 49.97-16.05 49.95-16.85 49.75-17.3L49.75-17.3Q49.59-17.75 48.9-17.93 48.2-18.1 47.5-18.13 46.8-18.15 46.59-18.15L46.59-18.15Q46.55-18.25 46.5-18.75 46.45-19.25 46.59-19.45L46.59-19.45Q48.5-19.7 50.32-20.2 52.15-20.7 53.59-21.5L53.59-21.5Q53.8-21.5 53.95-21.2 54.09-20.9 54.09-20.7L54.09-20.7Q54.05-20.45 53.9-19.73 53.75-19 53.75-18.7L53.75-18.7Q53.75-18.5 53.84-18.5L53.84-18.5Q53.9-18.5 54-18.6L54-18.6Q54.59-19.15 55.65-19.8 56.7-20.45 57.87-20.93 59.05-21.4 60-21.4ZM57.9-18.5L57.9-18.5Q56.9-18.5 55.95-18.18 55-17.85 54.37-17.4 53.75-16.95 53.75-16.6L53.75-16.6 53.75-4.9Q53.75-3.65 54.52-2.85 55.3-2.05 56.37-1.68 57.45-1.3 58.3-1.3L58.3-1.3Q60.34-1.3 61.77-2.53 63.2-3.75 63.95-5.65 64.7-7.55 64.7-9.5L64.7-9.5Q64.7-13.85 62.7-16.18 60.7-18.5 57.9-18.5ZM85.49-21.4L85.49-21.4Q88.14-21.4 89.49-20.3 90.84-19.2 91.32-16.9 91.79-14.6 91.79-11.05L91.79-11.05 91.79-5.65Q91.79-4.55 91.82-3.6 91.84-2.65 92.04-2.05L92.04-2.05Q92.14-1.8 92.77-1.6 93.39-1.4 94.12-1.33 94.84-1.25 95.14-1.25L95.14-1.25Q95.29-1.05 95.32-0.55 95.34-0.05 95.14 0.15L95.14 0.15Q93.64 0.05 92.49-0.03 91.34-0.1 89.89-0.1L89.89-0.1Q88.49-0.1 87.37-0.03 86.24 0.05 84.74 0.15L84.74 0.15Q84.54-0.05 84.57-0.55 84.59-1.05 84.74-1.25L84.74-1.25Q85.04-1.25 85.74-1.33 86.44-1.4 87.09-1.6 87.74-1.8 87.79-2.05L87.79-2.05Q87.99-2.65 88.02-3.6 88.04-4.55 88.04-5.65L88.04-5.65 88.04-10.55Q88.04-13.6 87.64-15.33 87.24-17.05 86.19-17.8 85.14-18.55 83.24-18.55L83.24-18.55Q82.34-18.55 81.27-17.98 80.19-17.4 79.39-16.75 78.59-16.1 78.59-15.85L78.59-15.85 78.59-5.65Q78.59-4.55 78.62-3.6 78.64-2.65 78.84-2.05L78.84-2.05Q78.94-1.8 79.57-1.6 80.19-1.4 80.92-1.33 81.64-1.25 81.94-1.25L81.94-1.25Q82.09-1.05 82.12-0.55 82.14-0.05 81.94 0.15L81.94 0.15Q80.44 0.05 79.29-0.03 78.14-0.1 76.69-0.1L76.69-0.1Q75.29-0.1 74.17-0.03 73.04 0.05 71.54 0.15L71.54 0.15Q71.34-0.05 71.37-0.55 71.39-1.05 71.54-1.25L71.54-1.25Q71.84-1.25 72.54-1.33 73.24-1.4 73.89-1.6 74.54-1.8 74.59-2.05L74.59-2.05Q74.79-2.65 74.82-3.6 74.84-4.55 74.84-5.65L74.84-5.65 74.84-27.25Q74.84-27.75 74.82-28.55 74.79-29.35 74.59-29.8L74.59-29.8Q74.39-30.35 73.52-30.5 72.64-30.65 71.64-30.65L71.64-30.65Q71.59-30.65 71.57-31.28 71.54-31.9 71.69-31.95L71.69-31.95Q73.54-32.15 75.29-32.68 77.04-33.2 78.59-33.9L78.59-33.9Q78.79-33.9 78.97-33.63 79.14-33.35 79.14-33.1L79.14-33.1Q79.14-33.1 78.87-32 78.59-30.9 78.59-28.85L78.59-28.85 78.59-17.8Q78.59-17.7 78.74-17.7L78.74-17.7Q78.79-17.7 78.89-17.8L78.89-17.8Q79.39-18.35 80.52-19.2 81.64-20.05 82.99-20.73 84.34-21.4 85.49-21.4ZM101.04-12.1L101.04-12.1Q100.99-9 102.09-6.9 103.19-4.8 105.04-3.78 106.89-2.75 109.04-2.75L109.04-2.75Q110.39-2.75 111.49-3.23 112.59-3.7 113.34-4.33 114.09-4.95 114.39-5.3L114.39-5.3Q114.44-5.3 114.62-5.13 114.79-4.95 114.79-4.65L114.79-4.65Q114.79-4.25 114.49-3.75L114.49-3.75Q114.04-3.05 113.09-2.08 112.14-1.1 110.69-0.35 109.24 0.4 107.34 0.4L107.34 0.4Q104.49 0.4 102.29-0.95 100.09-2.3 98.84-4.6 97.59-6.9 97.59-9.75L97.59-9.75Q97.59-12.2 98.47-14.33 99.34-16.45 100.77-18.03 102.19-19.6 103.89-20.5 105.59-21.4 107.19-21.4L107.19-21.4Q109.39-21.4 110.82-20.65 112.24-19.9 113.07-18.8 113.89-17.7 114.22-16.6 114.54-15.5 114.54-14.75L114.54-14.75Q114.54-13.7 114.29-13.1 114.04-12.5 113.34-12.45L113.34-12.45Q112.89-12.4 111.57-12.38 110.24-12.35 108.54-12.3 106.84-12.25 105.19-12.2 103.54-12.15 102.39-12.13 101.24-12.1 101.04-12.1ZM101.29-13.9L101.29-13.9 109.24-13.9Q109.69-13.9 110.02-14.15 110.34-14.4 110.39-15.05L110.39-15.05Q110.44-15.65 110.04-16.75 109.64-17.85 108.77-18.75 107.89-19.65 106.39-19.65L106.39-19.65Q104.84-19.65 103.84-18.78 102.84-17.9 102.27-16.78 101.69-15.65 101.47-14.78 101.24-13.9 101.29-13.9ZM131.39-21.35L131.39-21.35Q132.34-21.35 133.19-20.93 134.04-20.5 134.39-19.9L134.39-19.9Q134.49-19.7 134.54-19.35 134.59-19 134.59-18.6L134.59-18.6Q134.59-17.25 133.96-16.65 133.34-16.05 132.94-16.05L132.94-16.05Q132.44-16.05 131.99-16.4 131.54-16.75 131.14-17L131.14-17Q130.79-17.25 130.41-17.43 130.04-17.6 129.34-17.6L129.34-17.6Q128.29-17.6 127.41-16.73 126.54-15.85 125.99-14.8 125.44-13.75 125.44-13.2L125.44-13.2 125.44-5.65Q125.44-4.55 125.46-3.6 125.49-2.65 125.69-2.05L125.69-2.05Q125.79-1.8 126.69-1.6 127.59-1.4 128.59-1.33 129.59-1.25 129.89-1.25L129.89-1.25Q130.04-1.05 130.06-0.55 130.09-0.05 129.89 0.15L129.89 0.15Q128.39 0.05 126.84-0.03 125.29-0.1 123.84-0.1L123.84-0.1Q122.44-0.1 121.14-0.03 119.84 0.05 118.34 0.15L118.34 0.15Q118.14-0.05 118.16-0.55 118.19-1.05 118.34-1.25L118.34-1.25Q118.64-1.25 119.36-1.33 120.09-1.4 120.74-1.6 121.39-1.8 121.44-2.05L121.44-2.05Q121.64-2.65 121.66-3.6 121.69-4.55 121.69-5.65L121.69-5.65 121.69-14.75Q121.69-15.25 121.66-16.05 121.64-16.85 121.44-17.3L121.44-17.3Q121.29-17.75 120.59-17.93 119.89-18.1 119.19-18.13 118.49-18.15 118.29-18.15L118.29-18.15Q118.24-18.25 118.19-18.75 118.14-19.25 118.29-19.45L118.29-19.45Q120.19-19.7 121.99-20.2 123.79-20.7 125.24-21.5L125.24-21.5Q125.44-21.5 125.61-21.2 125.79-20.9 125.79-20.7L125.79-20.7Q125.79-20.55 125.69-19.55 125.59-18.55 125.51-17.53 125.44-16.5 125.44-16.2L125.44-16.2Q125.44-16.05 125.51-16.05 125.59-16.05 125.64-16.1L125.64-16.1Q126.14-17.15 127.06-18.38 127.99-19.6 129.14-20.48 130.29-21.35 131.39-21.35ZM140.49-12.1L140.49-12.1Q140.44-9 141.54-6.9 142.64-4.8 144.49-3.78 146.34-2.75 148.49-2.75L148.49-2.75Q149.84-2.75 150.94-3.23 152.04-3.7 152.79-4.33 153.54-4.95 153.84-5.3L153.84-5.3Q153.89-5.3 154.06-5.13 154.24-4.95 154.24-4.65L154.24-4.65Q154.24-4.25 153.94-3.75L153.94-3.75Q153.49-3.05 152.54-2.08 151.59-1.1 150.14-0.35 148.69 0.4 146.79 0.4L146.79 0.4Q143.94 0.4 141.74-0.95 139.54-2.3 138.29-4.6 137.04-6.9 137.04-9.75L137.04-9.75Q137.04-12.2 137.91-14.33 138.79-16.45 140.21-18.03 141.64-19.6 143.34-20.5 145.04-21.4 146.64-21.4L146.64-21.4Q148.84-21.4 150.26-20.65 151.69-19.9 152.51-18.8 153.34-17.7 153.66-16.6 153.99-15.5 153.99-14.75L153.99-14.75Q153.99-13.7 153.74-13.1 153.49-12.5 152.79-12.45L152.79-12.45Q152.34-12.4 151.01-12.38 149.69-12.35 147.99-12.3 146.29-12.25 144.64-12.2 142.99-12.15 141.84-12.13 140.69-12.1 140.49-12.1ZM140.74-13.9L140.74-13.9 148.69-13.9Q149.14-13.9 149.46-14.15 149.79-14.4 149.84-15.05L149.84-15.05Q149.89-15.65 149.49-16.75 149.09-17.85 148.21-18.75 147.34-19.65 145.84-19.65L145.84-19.65Q144.29-19.65 143.29-18.78 142.29-17.9 141.71-16.78 141.14-15.65 140.91-14.78 140.69-13.9 140.74-13.9ZM169.58-21.4L169.58-21.4Q170.38-21.4 171.48-21.23 172.58-21.05 172.93-20.9L172.93-20.9Q173.18-20.9 173.18-21.9L173.18-21.9 173.18-27.25Q173.18-27.8 173.16-28.58 173.13-29.35 172.93-29.8L172.93-29.8Q172.73-30.35 171.83-30.5 170.93-30.65 169.93-30.65L169.93-30.65Q169.88-30.65 169.86-31.28 169.83-31.9 169.98-31.95L169.98-31.95Q171.83-32.15 173.61-32.68 175.38-33.2 176.93-33.9L176.93-33.9Q177.13-33.9 177.31-33.63 177.48-33.35 177.48-33.1L177.48-33.1Q177.48-33.1 177.21-32 176.93-30.9 176.93-28.85L176.93-28.85 176.93-7.95Q176.93-6.55 177.01-5.13 177.08-3.7 177.28-3.15L177.28-3.15Q177.53-2.6 178.46-2.48 179.38-2.35 179.88-2.3L179.88-2.3Q180.08-2.3 180.13-2.3L180.13-2.3Q180.23-2.25 180.26-2.02 180.28-1.8 180.28-1.7L180.28-1.7Q180.28-1.65 180.21-1.33 180.13-1 179.93-1L179.93-1Q178.68-0.95 177.21-0.6 175.73-0.25 174.68 0.08 173.63 0.4 173.58 0.4L173.58 0.4Q173.38 0.4 173.28 0.05 173.18-0.3 173.18-0.55L173.18-0.55 173.18-2.25Q173.18-2.7 173.03-2.55L173.03-2.55Q172.68-2.15 171.56-1.45 170.43-0.75 169.08-0.18 167.73 0.4 166.53 0.4L166.53 0.4Q164.33 0.4 162.36-0.98 160.38-2.35 159.16-4.73 157.93-7.1 157.93-10.05L157.93-10.05Q157.93-12.45 159.11-14.53 160.28-16.6 162.11-18.13 163.93-19.65 165.93-20.53 167.93-21.4 169.58-21.4ZM167.98-19.35L167.98-19.35Q166.13-19.35 164.81-18.18 163.48-17 162.76-15.15 162.03-13.3 162.03-11.25L162.03-11.25Q162.03-8.95 162.83-7 163.63-5.05 165.18-3.85 166.73-2.65 168.93-2.65L168.93-2.65Q170.58-2.65 171.88-3.33 173.18-4 173.18-4.6L173.18-4.6 173.18-16.95Q173.18-17.8 171.61-18.57 170.03-19.35 167.98-19.35ZM213.93-32.55L213.93-32.55Q217.18-32.55 220.05-31.35 222.93-30.15 225.13-27.93 227.33-25.7 228.6-22.68 229.88-19.65 229.88-16L229.88-16Q229.88-12.25 228.38-9.05 226.88-5.85 224.3-3.55 221.73-1.25 218.48-0.2L218.48-0.2Q220.23 0.65 221.43 1.4 222.63 2.15 223.68 2.73 224.73 3.3 226 3.63 227.28 3.95 229.18 3.95L229.18 3.95Q230.63 3.95 231.5 3.83 232.38 3.7 232.63 3.65L232.63 3.65Q232.88 3.65 233.15 3.75 233.43 3.85 233.53 4L233.53 4Q233.58 4.05 233.58 4.15L233.58 4.15Q231.58 5.2 229.65 5.93 227.73 6.65 225.48 6.65L225.48 6.65Q223.53 6.65 221.75 5.85 219.98 5.05 218.18 3.93 216.38 2.8 214.4 1.7 212.43 0.6 210.03 0L210.03 0Q206.63-0.85 203.93-3.08 201.23-5.3 199.68-8.63 198.13-11.95 198.13-16L198.13-16Q198.13-19.45 199.38-22.45 200.63-25.45 202.8-27.73 204.98-30 207.85-31.28 210.73-32.55 213.93-32.55ZM213.23-30.9L213.23-30.9Q210.48-30.9 208.53-29.68 206.58-28.45 205.35-26.45 204.13-24.45 203.55-22 202.98-19.55 202.98-17.1L202.98-17.1Q202.98-14.25 203.75-11.43 204.53-8.6 206.03-6.28 207.53-3.95 209.7-2.55 211.88-1.15 214.73-1.15L214.73-1.15Q217.48-1.15 219.43-2.38 221.38-3.6 222.63-5.65 223.88-7.7 224.45-10.18 225.03-12.65 225.03-15.1L225.03-15.1Q225.03-17.95 224.25-20.75 223.48-23.55 221.95-25.85 220.43-28.15 218.25-29.53 216.08-30.9 213.23-30.9ZM249.23-5.1L249.23-15.6Q249.23-15.65 249.23-15.8L249.23-15.8Q249.23-16.3 249.18-17.03 249.13-17.75 248.88-18.25L248.88-18.25Q248.53-18.95 247.58-19.1 246.63-19.25 246.13-19.25L246.13-19.25Q246.03-19.35 246-19.83 245.98-20.3 246.13-20.5L246.13-20.5Q248.03-20.6 249.78-20.85 251.53-21.1 252.83-21.5L252.83-21.5Q253.03-21.5 253.18-21 253.33-20.5 253.33-20.3L253.33-20.3Q253.18-20 253.1-19.1 253.03-18.2 253.03-17.15L253.03-17.15 253.03-6.9Q253.03-6.5 253.08-5.33 253.13-4.15 253.33-3.15L253.33-3.15Q253.48-2.55 254.45-2.45 255.43-2.35 255.93-2.3L255.93-2.3Q256.18-2.3 256.23-2.3L256.23-2.3Q256.32-2.25 256.35-2.05 256.38-1.85 256.38-1.75L256.38-1.75Q256.38-1.7 256.28-1.35 256.18-1 255.98-1L255.98-1Q254.73-0.95 253.25-0.6 251.78-0.25 250.73 0.08 249.68 0.4 249.63 0.4L249.63 0.4Q249.43 0.4 249.33 0.13 249.23-0.15 249.23-0.4L249.23-0.4 249.23-2.65Q249.23-2.85 249.18-2.88 249.13-2.9 249.13-2.9L249.13-2.9Q248.48-2.2 247.33-1.43 246.18-0.65 244.83-0.15 243.48 0.35 242.23 0.35L242.23 0.35Q240.28 0.35 239.08-0.58 237.88-1.5 237.23-2.98 236.58-4.45 236.35-6.15 236.13-7.85 236.13-9.4L236.13-9.4 236.13-15.6Q236.13-16.1 236.08-16.9 236.03-17.7 235.73-18.25L235.73-18.25Q235.38-18.95 234.43-19.1 233.48-19.25 232.98-19.25L232.98-19.25Q232.88-19.35 232.85-19.83 232.83-20.3 232.98-20.5L232.98-20.5Q234.88-20.6 236.63-20.85 238.38-21.1 239.68-21.5L239.68-21.5Q239.88-21.5 240.05-21.1 240.23-20.7 240.23-20.5L240.23-20.5Q240.08-20.2 239.98-19.2 239.88-18.2 239.88-17.15L239.88-17.15 239.88-9.95Q239.88-6.05 241.05-4.23 242.23-2.4 244.78-2.4L244.78-2.4Q245.88-2.4 246.88-2.83 247.88-3.25 248.55-3.9 249.23-4.55 249.23-5.1L249.23-5.1ZM262.67-12.1L262.67-12.1Q262.62-9 263.72-6.9 264.82-4.8 266.67-3.78 268.52-2.75 270.67-2.75L270.67-2.75Q272.02-2.75 273.12-3.23 274.22-3.7 274.97-4.33 275.72-4.95 276.02-5.3L276.02-5.3Q276.07-5.3 276.25-5.13 276.42-4.95 276.42-4.65L276.42-4.65Q276.42-4.25 276.12-3.75L276.12-3.75Q275.67-3.05 274.72-2.08 273.77-1.1 272.32-0.35 270.87 0.4 268.97 0.4L268.97 0.4Q266.12 0.4 263.92-0.95 261.72-2.3 260.47-4.6 259.22-6.9 259.22-9.75L259.22-9.75Q259.22-12.2 260.1-14.33 260.97-16.45 262.4-18.03 263.82-19.6 265.52-20.5 267.22-21.4 268.82-21.4L268.82-21.4Q271.02-21.4 272.45-20.65 273.87-19.9 274.7-18.8 275.52-17.7 275.85-16.6 276.17-15.5 276.17-14.75L276.17-14.75Q276.17-13.7 275.92-13.1 275.67-12.5 274.97-12.45L274.97-12.45Q274.52-12.4 273.2-12.38 271.87-12.35 270.17-12.3 268.47-12.25 266.82-12.2 265.17-12.15 264.02-12.13 262.87-12.1 262.67-12.1ZM262.92-13.9L262.92-13.9 270.87-13.9Q271.32-13.9 271.65-14.15 271.97-14.4 272.02-15.05L272.02-15.05Q272.07-15.65 271.67-16.75 271.27-17.85 270.4-18.75 269.52-19.65 268.02-19.65L268.02-19.65Q266.47-19.65 265.47-18.78 264.47-17.9 263.9-16.78 263.32-15.65 263.1-14.78 262.87-13.9 262.92-13.9ZM287.72-21.35L287.72-21.35Q289.17-21.35 290.15-21.13 291.12-20.9 292.72-20.7L292.72-20.7Q292.97-19.6 293.12-18.13 293.27-16.65 293.32-15.35L293.32-15.35Q293.32-15.1 292.82-15.1L292.82-15.1Q292.62-15.1 292.4-15.15 292.17-15.2 291.97-15.35L291.97-15.35Q291.72-16.25 291.15-17.3 290.57-18.35 289.75-19.07 288.92-19.8 287.87-19.8L287.87-19.8Q286.12-19.8 285.27-18.93 284.42-18.05 284.42-16.75L284.42-16.75Q284.42-15.5 285.02-14.73 285.62-13.95 286.6-13.38 287.57-12.8 288.67-12.15L288.67-12.15Q289.77-11.5 291.07-10.7 292.37-9.9 293.32-8.83 294.27-7.75 294.27-6.2L294.27-6.2Q294.27-4.25 293.22-2.73 292.17-1.2 290.47-0.33 288.77 0.55 286.77 0.55L286.77 0.55Q285.07 0.55 283.87 0.23 282.67-0.1 281.07-0.4L281.07-0.4Q280.87-0.95 280.67-1.9 280.47-2.85 280.35-3.85 280.22-4.85 280.22-5.45L280.22-5.45Q280.62-5.75 281.12-5.75L281.12-5.75Q281.37-5.75 281.52-5.65L281.52-5.65Q281.82-4.65 282.57-3.58 283.32-2.5 284.42-1.78 285.52-1.05 286.82-1.05L286.82-1.05Q288.32-1.05 289.32-1.95 290.32-2.85 290.32-4.55L290.32-4.55Q290.32-6.05 289.42-6.98 288.52-7.9 287.17-8.63 285.82-9.35 284.37-10.15L284.37-10.15Q282.92-11 281.8-12.23 280.67-13.45 280.67-15.4L280.67-15.4Q280.67-17.2 281.7-18.55 282.72-19.9 284.32-20.63 285.92-21.35 287.72-21.35ZM304.02-27.5L304.02-21.1 310.32-21.1Q310.57-21.1 310.57-20.55L310.57-20.55Q310.57-19.8 309.87-19.1L309.87-19.1 304.02-19.1 304.02-6.3Q304.02-2.3 307.27-2.3L307.27-2.3Q308.37-2.3 309.27-2.75 310.17-3.2 310.42-3.4L310.42-3.4Q310.57-3.35 310.57-3.1L310.57-3.1Q310.57-2.55 310.37-2.35L310.37-2.35Q310.02-1.95 309.29-1.3 308.57-0.65 307.57-0.15 306.57 0.35 305.37 0.35L305.37 0.35Q304.12 0.35 302.94-0.1 301.77-0.55 301.02-1.7 300.27-2.85 300.27-4.95L300.27-4.95 300.27-19.1 297.42-19.1Q297.32-19.1 297.27-19.28 297.22-19.45 297.22-19.55L297.22-19.55Q297.22-19.65 297.52-20.03 297.82-20.4 298.14-20.75 298.47-21.1 298.47-21.1L298.47-21.1 300.27-21.1 300.27-24.15Q300.77-24.7 301.44-25.43 302.12-26.15 302.67-26.78 303.22-27.4 303.27-27.45L303.27-27.45Q303.47-27.65 303.74-27.65 304.02-27.65 304.02-27.5L304.02-27.5Z" opacity="1" transform="matrix(1,0,0,1,0,0)" fill="#ffffff" class="wordmark-text-0" data-fill-palette-color="primary" id="text-0"></path></svg></g></svg></g></svg></g></svg></g><g transform="matrix(1,0,0,1,89.61587883825571,0)"><svg viewBox="0 0 44.76824232348857 45.142194971613954" height="45.142194971613954" width="44.76824232348857"><g><svg xmlns="http://www.w3.org/2000/svg" xmlns:xlink="http://www.w3.org/1999/xlink" version="1.1" x="0" y="0" viewBox="9.941 4.154 83.80799999999999 84.50805481358039" enable-background="new 0 0 100 100" xml:space="preserve" height="45.142194971613954" width="44.76824232348857" class="icon-icon-0" data-fill-palette-color="accent" id="icon-0"><g fill="#ffffff" data-fill-palette-color="accent"><path d="M74.152 88.662H53.963A4 4 0 0 1 50.328 82.992 7.3 7.3 0 0 0 51.011 79.908C51.011 75.833 47.696 72.517 43.622 72.517 39.547 72.517 36.232 75.832 36.232 79.908A7.3 7.3 0 0 0 36.791 82.706 4 4 0 0 1 33.281 88.662H13.941A4 4 0 0 1 9.941 84.662V64.684A4.002 4.002 0 0 1 15.569 61.031 7.3 7.3 0 0 0 18.564 61.673C22.639 61.673 25.954 58.358 25.954 54.283S22.639 46.893 18.564 46.893A7.3 7.3 0 0 0 15.567 47.533 4 4 0 0 1 9.941 43.879V24.099A4 4 0 0 1 13.941 20.099H28.81C28.804 19.914 28.8 19.729 28.8 19.543 28.8 11.057 35.704 4.154 44.19 4.154S59.579 11.057 59.579 19.543C59.579 19.729 59.576 19.914 59.569 20.099H74.151A4 4 0 0 1 78.151 24.099V38.894C86.733 38.773 93.749 45.727 93.749 54.283S86.73 69.798 78.151 69.672V84.663A4 4 0 0 1 74.152 88.662M58.992 80.662H70.152V64.858A4.003 4.003 0 0 1 75.634 61.142C76.514 61.494 77.431 61.671 78.36 61.671 82.435 61.671 85.751 58.356 85.751 54.281S82.436 46.891 78.36 46.891C77.43 46.891 76.512 47.069 75.631 47.419A4 4 0 0 1 70.152 43.702V28.099H54.627A4 4 0 0 1 50.961 22.498 7.3 7.3 0 0 0 51.58 19.542C51.58 15.468 48.266 12.153 44.191 12.153S36.801 15.468 36.801 19.542C36.801 20.562 37.009 21.556 37.42 22.497A4 4 0 0 1 33.755 28.099H17.941V38.905C18.148 38.897 18.356 38.892 18.564 38.892 27.05 38.892 33.954 45.796 33.954 54.282S27.05 69.672 18.564 69.672C18.356 69.672 18.148 69.668 17.941 69.659V80.662H28.25A16 16 0 0 1 28.231 79.908C28.231 71.422 35.135 64.517 43.621 64.517S59.01 71.421 59.01 79.908C59.011 80.16 59.004 80.412 58.992 80.662" fill="#ffffff" data-fill-palette-color="accent"></path></g></svg></g></svg></g><g></g></svg></g></svg></g></svg></g><defs></defs></svg><rect width="448" height="360" fill="none" stroke="none" visibility="hidden"></rect></g></svg></g></svg>